# xmcd
#
# Track frame offsets:
#	150
#	20525
#	23861
#	43065
#	68496
#	89078
#	90868
#	110761
#	129907
#	146934
#	160775
#	193372
#	221331
#	222298
#	243619
#	276511
#	290255
#	304385
#
# Disc length: 4283 seconds
#
# Revision: 1
# Processed by: cddbd v1.5.2PL0 Copyright (c) Steve Scherf et al.
# Submitted via: audiograbber 1.83.01
#
DISCID=1510b912
DTITLE=Geoff Achison - Live at Burrinja Cafe
DYEAR=2011
DGENRE=Blues
TTITLE0=Begging Bowl
TTITLE1=Introduction
TTITLE2=Don't Play Guitar Boy
TTITLE3=Voodoo
TTITLE4=Kissing Angels
TTITLE5=Introduction
TTITLE6=Apparatus
TTITLE7=Christine
TTITLE8=Sleepwalking
TTITLE9=End of the Line
TTITLE10=Whipping Post
TTITLE11=Superstition
TTITLE12=Introduction
TTITLE13=E verything Must Change
TTITLE14=Train Ride
TTITLE15=Big Machine
TTITLE16=Be Careful What You Wish For
TTITLE17=Rule The World
EXTD=
EXTT0=
EXTT1=
EXTT2=
EXTT3=
EXTT4=
EXTT5=
EXTT6=
EXTT7=
EXTT8=
EXTT9=
EXTT10=
EXTT11=
EXTT12=
EXTT13=
EXTT14=
EXTT15=
EXTT16=
EXTT17=
PLAYORDER=
